{
  "accessors": [
    {
      "bufferView": 1,
      "componentType": 5126,
      "count": 63124,
      "max": [
        29.759708404541016,
        90.209396362304688,
        60.666496276855469
      ],
      "min": [
        -51.790821075439453,
        5.7207074165344238,
        -64.865188598632812
      ],
      "type": "VEC3"
    },
    {
      "bufferView": 1,
      "byteOffset": 757488,
      "componentType": 5126,
      "count": 63124,
      "max": [
        0.99995678663253784,
        0.99999052286148071,
        0.99991661310195923
      ],
      "min": [
        -0.99999445676803589,
        -0.99998199939727783,
        -0.99987751245498657
      ],
      "type": "VEC3"
    },
    {
      "bufferView": 2,
      "componentType": 5126,
      "count": 63124,
      "max": [
        0.95686274766921997,
        0.7764706015586853,
        0.58039218187332153,
        1
      ],
      "min": [
        0.3490196168422699,
        0.28235295414924622,
        0.12941177189350128,
        1
      ],
      "type": "VEC4"
    },
    {
      "bufferView": 0,
      "componentType": 5125,
      "count": 378732,
      "max": [
        63123
      ],
      "min": [
        0
      ],
      "type": "SCALAR"
    },
    {
      "bufferView": 1,
      "byteOffset": 1514976,
      "componentType": 5126,
      "count": 12148,
      "max": [
        59.910190582275391,
        83.858001708984375,
        35.502716064453125
      ],
      "min": [
        -43.08831787109375,
        6.6704959869384766,
        -52.694057464599609
      ],
      "type": "VEC3"
    },
    {
      "bufferView": 1,
      "byteOffset": 1660752,
      "componentType": 5126,
      "count": 12148,
      "max": [
        0.99999779462814331,
        0.99979948997497559,
        0.99895447492599487
      ],
      "min": [
        -0.99996882677078247,
        -0.9992406964302063,
        -0.99958926439285278
      ],
      "type": "VEC3"
    },
    {
      "bufferView": 2,
      "byteOffset": 1009984,
      "componentType": 5126,
      "count": 12148,
      "max": [
        0.87058824300765991,
        0.23529411852359772,
        0.23529411852359772,
        1
      ],
      "min": [
        0.43921568989753723,
        0,
        0,
        1
      ],
      "type": "VEC4"
    },
    {
      "bufferView": 0,
      "byteOffset": 1514928,
      "componentType": 5125,
      "count": 72864,
      "max": [
        12147
      ],
      "min": [
        0
      ],
      "type": "SCALAR"
    },
    {
      "bufferView": 1,
      "byteOffset": 1806528,
      "componentType": 5126,
      "count": 65532,
      "max": [
        70.757698059082031,
        75.144172668457031,
        -2.4837741851806641
      ],
      "min": [
        -56.760818481445312,
        10.634831428527832,
        -75.977607727050781
      ],
      "type": "VEC3"
    },
    {
      "bufferView": 1,
      "byteOffset": 2592912,
      "componentType": 5126,
      "count": 65532,
      "max": [
        1,
        1,
        0.99998921155929565
      ],
      "min": [
        -0.99999791383743286,
        -1,
        -0.99999880790710449
      ],
      "type": "VEC3"
    },
    {
      "bufferView": 2,
      "byteOffset": 1204352,
      "componentType": 5126,
      "count": 65532,
      "max": [
        0.90588235855102539,
        0.74901962280273438,
        0.26666668057441711,
        1
      ],
      "min": [
        0.56862747669219971,
        0.26666668057441711,
        0.011764706112444401,
        1
      ],
      "type": "VEC4"
    },
    {
      "bufferView": 0,
      "byteOffset": 1806384,
      "componentType": 5125,
      "count": 384462,
      "max": [
        65531
      ],
      "min": [
        0
      ],
      "type": "SCALAR"
    },
    {
      "bufferView": 1,
      "byteOffset": 3379296,
      "componentType": 5126,
      "count": 65532,
      "max": [
        33.469158172607422,
        98.818145751953125,
        37.571540832519531
      ],
      "min": [
        -56.824226379394531,
        10.634831428527832,
        -95.462188720703125
      ],
      "type": "VEC3"
    },
    {
      "bufferView": 1,
      "byteOffset": 4165680,
      "componentType": 5126,
      "count": 65532,
      "max": [
        0.9999997615814209,
        1,
        0.9999968409538269
      ],
      "min": [
        -0.9999956488609314,
        -1,
        -0.99999743700027466
      ],
      "type": "VEC3"
    },
    {
      "bufferView": 2,
      "byteOffset": 2252864,
      "componentType": 5126,
      "count": 65532,
      "max": [
        0.90588235855102539,
        0.74901962280273438,
        0.26666668057441711,
        1
      ],
      "min": [
        0.55686277151107788,
        0.25098040699958801,
        0.011764706112444401,
        1
      ],
      "type": "VEC4"
    },
    {
      "bufferView": 0,
      "byteOffset": 3344232,
      "componentType": 5125,
      "count": 371547,
      "max": [
        65531
      ],
      "min": [
        0
      ],
      "type": "SCALAR"
    },
    {
      "bufferView": 1,
      "byteOffset": 4952064,
      "componentType": 5126,
      "count": 65532,
      "max": [
        18.132637023925781,
        90.050727844238281,
        29.591039657592773
      ],
      "min": [
        -18.91868782043457,
        60.580009460449219,
        -33.496810913085938
      ],
      "type": "VEC3"
    },
    {
      "bufferView": 1,
      "byteOffset": 5738448,
      "componentType": 5126,
      "count": 65532,
      "max": [
        0.99997615814208984,
        0.99996578693389893,
        0.99995368719100952
      ],
      "min": [
        -0.99998378753662109,
        -0.99998652935028076,
        -0.99998772144317627
      ],
      "type": "VEC3"
    },
    {
      "bufferView": 2,
      "byteOffset": 3301376,
      "componentType": 5126,
      "count": 65532,
      "max": [
        0.90588235855102539,
        0.74901962280273438,
        0.26666668057441711,
        1
      ],
      "min": [
        0.56862747669219971,
        0.25882354378700256,
        0.011764706112444401,
        1
      ],
      "type": "VEC4"
    },
    {
      "bufferView": 0,
      "byteOffset": 4830420,
      "componentType": 5125,
      "count": 366774,
      "max": [
        65531
      ],
      "min": [
        0
      ],
      "type": "SCALAR"
    },
    {
      "bufferView": 1,
      "byteOffset": 6524832,
      "componentType": 5126,
      "count": 65532,
      "max": [
        18.574705123901367,
        86.002029418945312,
        22.658193588256836
      ],
      "min": [
        -34.619029998779297,
        60.715293884277344,
        -33.496810913085938
      ],
      "type": "VEC3"
    },
    {
      "bufferView": 1,
      "byteOffset": 7311216,
      "componentType": 5126,
      "count": 65532,
      "max": [
        0.99993246793746948,
        0.9999995231628418,
        0.99999254941940308
      ],
      "min": [
        -0.99995917081832886,
        -0.9999847412109375,
        -0.99999022483825684
      ],
      "type": "VEC3"
    },
    {
      "bufferView": 2,
      "byteOffset": 4349888,
      "componentType": 5126,
      "count": 65532,
      "max": [
        0.90588235855102539,
        0.7450980544090271,
        0.26666668057441711,
        1
      ],
      "min": [
        0.56078433990478516,
        0.24705882370471954,
        0,
        1
      ],
      "type": "VEC4"
    },
    {
      "bufferView": 0,
      "byteOffset": 6297516,
      "componentType": 5125,
      "count": 370551,
      "max": [
        65531
      ],
      "min": [
        0
      ],
      "type": "SCALAR"
    },
    {
      "bufferView": 1,
      "byteOffset": 8097600,
      "componentType": 5126,
      "count": 65532,
      "max": [
        73.543991088867188,
        88.453475952148438,
        14.276512145996094
      ],
      "min": [
        -41.80987548828125,
        14.614234924316406,
        -43.090339660644531
      ],
      "type": "VEC3"
    },
    {
      "bufferView": 1,
      "byteOffset": 8883984,
      "componentType": 5126,
      "count": 65532,
      "max": [
        0.99990928173065186,
        0.99999934434890747,
        0.99992537498474121
      ],
      "min": [
        -0.99997317790985107,
        -0.9999922513961792,
        -0.99999022483825684
      ],
      "type": "VEC3"
    },
    {
      "bufferView": 2,
      "byteOffset": 5398400,
      "componentType": 5126,
      "count": 65532,
      "max": [
        0.90588235855102539,
        0.74901962280273438,
        0.26666668057441711,
        1
      ],
      "min": [
        0.54117649793624878,
        0.21960784494876862,
        0,
        1
      ],
      "type": "VEC4"
    },
    {
      "bufferView": 0,
      "byteOffset": 7779720,
      "componentType": 5125,
      "count": 375807,
      "max": [
        65531
      ],
      "min": [
        0
      ],
      "type": "SCALAR"
    },
    {
      "bufferView": 1,
      "byteOffset": 9670368,
      "componentType": 5126,
      "count": 65532,
      "max": [
        76.918312072753906,
        38.440647125244141,
        0.68261295557022095
      ],
      "min": [
        46.014053344726562,
        14.605629920959473,
        -38.082733154296875
      ],
      "type": "VEC3"
    },
    {
      "bufferView": 1,
      "byteOffset": 10456752,
      "componentType": 5126,
      "count": 65532,
      "max": [
        0.99999845027923584,
        1,
        0.99998933076858521
      ],
      "min": [
        -0.99999493360519409,
        -1,
        -0.9999995231628418
      ],
      "type": "VEC3"
    },
    {
      "bufferView": 2,
      "byteOffset": 6446912,
      "componentType": 5126,
      "count": 65532,
      "max": [
        0.90588235855102539,
        0.74901962280273438,
        0.26666668057441711,
        1
      ],
      "min": [
        0.25490197539329529,
        0,
        0,
        1
      ],
      "type": "VEC4"
    },
    {
      "bufferView": 0,
      "byteOffset": 9282948,
      "componentType": 5125,
      "count": 376167,
      "max": [
        65531
      ],
      "min": [
        0
      ],
      "type": "SCALAR"
    },
    {
      "bufferView": 1,
      "byteOffset": 11243136,
      "componentType": 5126,
      "count": 52700,
      "max": [
        84.223953247070312,
        25.076349258422852,
        -6.2936496734619141
      ],
      "min": [
        -5.004004955291748,
        7.6403775215148926,
        -104.32324981689453
      ],
      "type": "VEC3"
    },
    {
      "bufferView": 1,
      "byteOffset": 11875536,
      "componentType": 5126,
      "count": 52700,
      "max": [
        0.99999475479125977,
        1,
        0.9999992847442627
      ],
      "min": [
        -0.99996000528335571,
        -1,
        -0.99999648332595825
      ],
      "type": "VEC3"
    },
    {
      "bufferView": 2,
      "byteOffset": 7495424,
      "componentType": 5126,
      "count": 52700,
      "max": [
        0.90588235855102539,
        0.74901962280273438,
        0.26666668057441711,
        1
      ],
      "min": [
        0.56862747669219971,
        0.26666668057441711,
        0.015686275437474251,
        1
      ],
      "type": "VEC4"
    },
    {
      "bufferView": 0,
      "byteOffset": 10787616,
      "componentType": 5125,
      "count": 302796,
      "max": [
        52699
      ],
      "min": [
        0
      ],
      "type": "SCALAR"
    }
  ],
  "asset": {
    "extras": {
      "author": "YannisTH (https://sketchfab.com/YannisTH)",
      "license": "CC-BY-4.0 (http://creativecommons.org/licenses/by/4.0/)",
      "source": "https://sketchfab.com/3d-models/coin-bag-79117bbe30ed4381845dad1ad580b48d",
      "title": "Coin Bag"
    },
    "generator": "Sketchfab-7.37.0",
    "version": "2.0"
  },
  "bufferViews": [
    {
      "buffer": 0,
      "byteLength": 11998800,
      "byteOffset": 0,
      "name": "floatBufferViews",
      "target": 34963
    },
    {
      "buffer": 0,
      "byteLength": 12507936,
      "byteOffset": 11998800,
      "byteStride": 12,
      "name": "floatBufferViews",
      "target": 34962
    },
    {
      "buffer": 0,
      "byteLength": 8338624,
      "byteOffset": 24506736,
      "byteStride": 16,
      "name": "floatBufferViews",
      "target": 34962
    }
  ],
  "buffers": [
    {
      "byteLength": 32845360,
      "uri": "scene.bin"
    }
  ],
  "materials": [
    {
      "doubleSided": true,
      "emissiveFactor": [
        0,
        0,
        0
      ],
      "name": "material",
      "pbrMetallicRoughness": {
        "baseColorFactor": [
          0.5,
          0.5,
          0.5,
          1
        ],
        "metallicFactor": 0,
        "roughnessFactor": 0.77267530490000003
      }
    },
    {
      "doubleSided": true,
      "emissiveFactor": [
        0,
        0,
        0
      ],
      "name": "String",
      "pbrMetallicRoughness": {
        "baseColorFactor": [
          0.5,
          0.5,
          0.5,
          1
        ],
        "metallicFactor": 0,
        "roughnessFactor": 1
      }
    },
    {
      "doubleSided": true,
      "emissiveFactor": [
        0,
        0,
        0
      ],
      "name": "Coins",
      "pbrMetallicRoughness": {
        "baseColorFactor": [
          0.5,
          0.5,
          0.5,
          1
        ],
        "metallicFactor": 1,
        "roughnessFactor": 0.46169969509999997
      }
    }
  ],
  "meshes": [
    {
      "name": "Bag_Bag_0",
      "primitives": [
        {
          "attributes": {
            "COLOR_0": 2,
            "NORMAL": 1,
            "POSITION": 0
          },
          "indices": 3,
          "material": 0,
          "mode": 4
        }
      ]
    },
    {
      "name": "String_String_0",
      "primitives": [
        {
          "attributes": {
            "COLOR_0": 6,
            "NORMAL": 5,
            "POSITION": 4
          },
          "indices": 7,
          "material": 1,
          "mode": 4
        }
      ]
    },
    {
      "name": "Coins_Coins_0",
      "primitives": [
        {
          "attributes": {
            "COLOR_0": 10,
            "NORMAL": 9,
            "POSITION": 8
          },
          "indices": 11,
          "material": 2,
          "mode": 4
        }
      ]
    },
    {
      "name": "Coins_Coins_0",
      "primitives": [
        {
          "attributes": {
            "COLOR_0": 14,
            "NORMAL": 13,
            "POSITION": 12
          },
          "indices": 15,
          "material": 2,
          "mode": 4
        }
      ]
    },
    {
      "name": "Coins_Coins_0",
      "primitives": [
        {
          "attributes": {
            "COLOR_0": 18,
            "NORMAL": 17,
            "POSITION": 16
          },
          "indices": 19,
          "material": 2,
          "mode": 4
        }
      ]
    },
    {
      "name": "Coins_Coins_0",
      "primitives": [
        {
          "attributes": {
            "COLOR_0": 22,
            "NORMAL": 21,
            "POSITION": 20
          },
          "indices": 23,
          "material": 2,
          "mode": 4
        }
      ]
    },
    {
      "name": "Coins_Coins_0",
      "primitives": [
        {
          "attributes": {
            "COLOR_0": 26,
            "NORMAL": 25,
            "POSITION": 24
          },
          "indices": 27,
          "material": 2,
          "mode": 4
        }
      ]
    },
    {
      "name": "Coins_Coins_0",
      "primitives": [
        {
          "attributes": {
            "COLOR_0": 30,
            "NORMAL": 29,
            "POSITION": 28
          },
          "indices": 31,
          "material": 2,
          "mode": 4
        }
      ]
    },
    {
      "name": "Coins_Coins_0",
      "primitives": [
        {
          "attributes": {
            "COLOR_0": 34,
            "NORMAL": 33,
            "POSITION": 32
          },
          "indices": 35,
          "material": 2,
          "mode": 4
        }
      ]
    }
  ],
  "nodes": [
    {
      "children": [
        1
      ],
      "name": "RootNode (gltf orientation matrix)",
      "rotation": [
        -0.70710678118654746,
        -0,
        -0,
        0.70710678118654757
      ]
    },
    {
      "children": [
        2
      ],
      "name": "RootNode (model correction matrix)"
    },
    {
      "children": [
        3
      ],
      "matrix": [
        1,
        0,
        0,
        0,
        0,
        0,
        1,
        0,
        0,
        -1,
        0,
        0,
        0,
        0,
        0,
        1
      ],
      "name": "6a105b86aab241ea9f39be13eaaff0a5.fbx"
    },
    {
      "children": [
        4,
        6,
        8
      ],
      "name": "RootNode"
    },
    {
      "children": [
        5
      ],
      "name": "Bag"
    },
    {
      "mesh": 0,
      "name": "Bag_Bag_0"
    },
    {
      "children": [
        7
      ],
      "name": "String"
    },
    {
      "mesh": 1,
      "name": "String_String_0"
    },
    {
      "children": [
        9,
        10,
        11,
        12,
        13,
        14,
        15
      ],
      "name": "Coins"
    },
    {
      "mesh": 2,
      "name": "Coins_Coins_0"
    },
    {
      "mesh": 3,
      "name": "Coins_Coins_0"
    },
    {
      "mesh": 4,
      "name": "Coins_Coins_0"
    },
    {
      "mesh": 5,
      "name": "Coins_Coins_0"
    },
    {
      "mesh": 6,
      "name": "Coins_Coins_0"
    },
    {
      "mesh": 7,
      "name": "Coins_Coins_0"
    },
    {
      "mesh": 8,
      "name": "Coins_Coins_0"
    }
  ],
  "scene": 0,
  "scenes": [
    {
      "name": "OSG_Scene",
      "nodes": [
        0
      ]
    }
  ]
}

