{
  "accessors": [
    {
      "bufferView": 2,
      "componentType": 5126,
      "count": 1037,
      "max": [
        532.643798828125,
        172.87210083007812,
        556.69580078125
      ],
      "min": [
        26.487991333007812,
        0,
        146.66981506347656
      ],
      "type": "VEC3"
    },
    {
      "bufferView": 2,
      "byteOffset": 12444,
      "componentType": 5126,
      "count": 1037,
      "max": [
        1,
        1,
        0.99999642372131348
      ],
      "min": [
        -0.99998986721038818,
        -1,
        -0.99999642372131348
      ],
      "type": "VEC3"
    },
    {
      "bufferView": 3,
      "componentType": 5126,
      "count": 1037,
      "max": [
        0.99999988079071045,
        1,
        0.77456140518188477,
        1
      ],
      "min": [
        -0.9999995231628418,
        -0.99998921155929565,
        -0.78314071893692017,
        -1
      ],
      "type": "VEC4"
    },
    {
      "bufferView": 1,
      "componentType": 5126,
      "count": 1037,
      "max": [
        0.90490001440048218,
        0.99750000238418579
      ],
      "min": [
        0.66769999265670776,
        0.47260001301765442
      ],
      "type": "VEC2"
    },
    {
      "bufferView": 0,
      "componentType": 5125,
      "count": 5304,
      "max": [
        1036
      ],
      "min": [
        0
      ],
      "type": "SCALAR"
    },
    {
      "bufferView": 2,
      "byteOffset": 24888,
      "componentType": 5126,
      "count": 2456,
      "max": [
        528.76959228515625,
        175.51629638671875,
        702.89251708984375
      ],
      "min": [
        22.942092895507812,
        150.7626953125,
        1.003021240234375
      ],
      "type": "VEC3"
    },
    {
      "bufferView": 2,
      "byteOffset": 54360,
      "componentType": 5126,
      "count": 2456,
      "max": [
        0.99990653991699219,
        1,
        0.99996042251586914
      ],
      "min": [
        -0.99990653991699219,
        -0.87962871789932251,
        -0.99996042251586914
      ],
      "type": "VEC3"
    },
    {
      "bufferView": 3,
      "byteOffset": 16592,
      "componentType": 5126,
      "count": 2456,
      "max": [
        1,
        0.99994605779647827,
        0.83405286073684692,
        -1
      ],
      "min": [
        -0.82723832130432129,
        -0.99994361400604248,
        -0.78748136758804321,
        -1
      ],
      "type": "VEC4"
    },
    {
      "bufferView": 1,
      "byteOffset": 8296,
      "componentType": 5126,
      "count": 2456,
      "max": [
        0.35120001435279846,
        0.49559998512268066
      ],
      "min": [
        0.0020000000949949026,
        0.0020000000949949026
      ],
      "type": "VEC2"
    },
    {
      "bufferView": 0,
      "byteOffset": 21216,
      "componentType": 5125,
      "count": 14499,
      "max": [
        2455
      ],
      "min": [
        0
      ],
      "type": "SCALAR"
    },
    {
      "bufferView": 2,
      "byteOffset": 83832,
      "componentType": 5126,
      "count": 2456,
      "max": [
        528.76959228515625,
        28.917503356933594,
        702.89251708984375
      ],
      "min": [
        22.942092895507812,
        4.1639022827148438,
        1.003021240234375
      ],
      "type": "VEC3"
    },
    {
      "bufferView": 2,
      "byteOffset": 113304,
      "componentType": 5126,
      "count": 2456,
      "max": [
        0.99990653991699219,
        0.87962871789932251,
        0.99996042251586914
      ],
      "min": [
        -0.99990653991699219,
        -1,
        -0.99996042251586914
      ],
      "type": "VEC3"
    },
    {
      "bufferView": 3,
      "byteOffset": 55888,
      "componentType": 5126,
      "count": 2456,
      "max": [
        1,
        0.99994361400604248,
        0.83405280113220215,
        1
      ],
      "min": [
        -0.82723861932754517,
        -0.9999459981918335,
        -0.78748220205307007,
        1
      ],
      "type": "VEC4"
    },
    {
      "bufferView": 1,
      "byteOffset": 27944,
      "componentType": 5126,
      "count": 2456,
      "max": [
        0.35120001435279846,
        0.49559998512268066
      ],
      "min": [
        0.0020000000949949026,
        0.0020000000949949026
      ],
      "type": "VEC2"
    },
    {
      "bufferView": 0,
      "byteOffset": 79212,
      "componentType": 5125,
      "count": 14499,
      "max": [
        2455
      ],
      "min": [
        0
      ],
      "type": "SCALAR"
    },
    {
      "bufferView": 2,
      "byteOffset": 142776,
      "componentType": 5126,
      "count": 2509,
      "max": [
        105.86549377441406,
        172.83430480957031,
        703.890625
      ],
      "min": [
        0,
        4.2403030395507812,
        0
      ],
      "type": "VEC3"
    },
    {
      "bufferView": 2,
      "byteOffset": 172884,
      "componentType": 5126,
      "count": 2509,
      "max": [
        0.98743057250976562,
        0.99999964237213135,
        0.99986767768859863
      ],
      "min": [
        -1,
        -0.99999964237213135,
        -0.99986767768859863
      ],
      "type": "VEC3"
    },
    {
      "bufferView": 3,
      "byteOffset": 95184,
      "componentType": 5126,
      "count": 2509,
      "max": [
        0.99999994039535522,
        0.98990404605865479,
        0.89648127555847168,
        1
      ],
      "min": [
        -0.99856775999069214,
        -1,
        -0.89085257053375244,
        -1
      ],
      "type": "VEC4"
    },
    {
      "bufferView": 1,
      "byteOffset": 47592,
      "componentType": 5126,
      "count": 2509,
      "max": [
        0.9034000039100647,
        0.99709999561309814
      ],
      "min": [
        0.66449999809265137,
        0.32289999723434448
      ],
      "type": "VEC2"
    },
    {
      "bufferView": 0,
      "byteOffset": 137208,
      "componentType": 5125,
      "count": 14052,
      "max": [
        2508
      ],
      "min": [
        0
      ],
      "type": "SCALAR"
    },
    {
      "bufferView": 2,
      "byteOffset": 202992,
      "componentType": 5126,
      "count": 2435,
      "max": [
        522.64898681640625,
        159.1138916015625,
        702.0888671875
      ],
      "min": [
        12.240386962890625,
        1.5671005249023438,
        1.801727294921875
      ],
      "type": "VEC3"
    },
    {
      "bufferView": 2,
      "byteOffset": 232212,
      "componentType": 5126,
      "count": 2435,
      "max": [
        1,
        1,
        0.9999995231628418
      ],
      "min": [
        -1,
        -1,
        -0.99999523162841797
      ],
      "type": "VEC3"
    },
    {
      "bufferView": 3,
      "byteOffset": 135328,
      "componentType": 5126,
      "count": 2435,
      "max": [
        0.9999956488609314,
        1,
        0.55701726675033569,
        1
      ],
      "min": [
        -1,
        -1,
        -0.51146268844604492,
        -1
      ],
      "type": "VEC4"
    },
    {
      "bufferView": 1,
      "byteOffset": 67664,
      "componentType": 5126,
      "count": 2435,
      "max": [
        0.99739998579025269,
        0.99730002880096436
      ],
      "min": [
        0.0020000000949949026,
        0.0020000000949949026
      ],
      "type": "VEC2"
    },
    {
      "bufferView": 0,
      "byteOffset": 193416,
      "componentType": 5125,
      "count": 12666,
      "max": [
        2434
      ],
      "min": [
        0
      ],
      "type": "SCALAR"
    }
  ],
  "asset": {
    "extras": {
      "author": "N8 (https://sketchfab.com/nathanmlange)",
      "license": "CC-BY-4.0 (http://creativecommons.org/licenses/by/4.0/)",
      "source": "https://sketchfab.com/3d-models/ornate-book-f55f8ffd11ef48629962d0f178039849",
      "title": "Ornate Book"
    },
    "generator": "Sketchfab-6.21.0",
    "version": "2.0"
  },
  "bufferViews": [
    {
      "buffer": 0,
      "byteLength": 244080,
      "byteOffset": 0,
      "name": "floatBufferViews",
      "target": 34963
    },
    {
      "buffer": 0,
      "byteLength": 87144,
      "byteOffset": 244080,
      "byteStride": 8,
      "name": "floatBufferViews",
      "target": 34962
    },
    {
      "buffer": 0,
      "byteLength": 261432,
      "byteOffset": 331224,
      "byteStride": 12,
      "name": "floatBufferViews",
      "target": 34962
    },
    {
      "buffer": 0,
      "byteLength": 174288,
      "byteOffset": 592656,
      "byteStride": 16,
      "name": "floatBufferViews",
      "target": 34962
    }
  ],
  "buffers": [
    {
      "byteLength": 766944,
      "uri": "scene.bin"
    }
  ],
  "images": [
    {
      "uri": "textures/02___Default_baseColor.png"
    },
    {
      "uri": "textures/02___Default_metallicRoughness.png"
    },
    {
      "uri": "textures/02___Default_normal.png"
    }
  ],
  "materials": [
    {
      "doubleSided": false,
      "name": "02___Default",
      "normalTexture": {
        "index": 2,
        "scale": 1,
        "texCoord": 0
      },
      "occlusionTexture": {
        "index": 1,
        "strength": 1,
        "texCoord": 0
      },
      "pbrMetallicRoughness": {
        "baseColorFactor": [
          1,
          1,
          1,
          1
        ],
        "baseColorTexture": {
          "index": 0,
          "texCoord": 0
        },
        "metallicFactor": 1,
        "metallicRoughnessTexture": {
          "index": 1,
          "texCoord": 0
        },
        "roughnessFactor": 0.40000000000000002
      }
    }
  ],
  "meshes": [
    {
      "primitives": [
        {
          "attributes": {
            "NORMAL": 1,
            "POSITION": 0,
            "TANGENT": 2,
            "TEXCOORD_0": 3
          },
          "indices": 4,
          "material": 0,
          "mode": 4
        }
      ]
    },
    {
      "primitives": [
        {
          "attributes": {
            "NORMAL": 6,
            "POSITION": 5,
            "TANGENT": 7,
            "TEXCOORD_0": 8
          },
          "indices": 9,
          "material": 0,
          "mode": 4
        }
      ]
    },
    {
      "primitives": [
        {
          "attributes": {
            "NORMAL": 11,
            "POSITION": 10,
            "TANGENT": 12,
            "TEXCOORD_0": 13
          },
          "indices": 14,
          "material": 0,
          "mode": 4
        }
      ]
    },
    {
      "primitives": [
        {
          "attributes": {
            "NORMAL": 16,
            "POSITION": 15,
            "TANGENT": 17,
            "TEXCOORD_0": 18
          },
          "indices": 19,
          "material": 0,
          "mode": 4
        }
      ]
    },
    {
      "primitives": [
        {
          "attributes": {
            "NORMAL": 21,
            "POSITION": 20,
            "TANGENT": 22,
            "TEXCOORD_0": 23
          },
          "indices": 24,
          "material": 0,
          "mode": 4
        }
      ]
    }
  ],
  "nodes": [
    {
      "children": [
        1
      ],
      "name": "RootNode (gltf orientation matrix)",
      "rotation": [
        -0.70710678118654746,
        -0,
        -0,
        0.70710678118654757
      ]
    },
    {
      "children": [
        2
      ],
      "name": "RootNode (model correction matrix)"
    },
    {
      "children": [
        3
      ],
      "matrix": [
        1,
        0,
        0,
        0,
        0,
        1,
        0,
        0,
        0,
        0,
        1,
        0,
        -275.85198974609375,
        -86.222602844238281,
        -351.9453125,
        1
      ],
      "name": "Ornate Book.obj.cleaner.gles"
    },
    {
      "children": [
        4,
        5,
        6,
        7,
        8
      ],
      "name": ""
    },
    {
      "mesh": 0,
      "name": ""
    },
    {
      "mesh": 1,
      "name": ""
    },
    {
      "mesh": 2,
      "name": ""
    },
    {
      "mesh": 3,
      "name": ""
    },
    {
      "mesh": 4,
      "name": ""
    }
  ],
  "samplers": [
    {
      "magFilter": 9729,
      "minFilter": 9987,
      "wrapS": 10497,
      "wrapT": 10497
    }
  ],
  "scene": 0,
  "scenes": [
    {
      "name": "OSG_Scene",
      "nodes": [
        0
      ]
    }
  ],
  "textures": [
    {
      "sampler": 0,
      "source": 0
    },
    {
      "sampler": 0,
      "source": 1
    },
    {
      "sampler": 0,
      "source": 2
    }
  ]
}

